<mxfile host="app.diagrams.net" modified="2023-11-29T08:52:51.266Z" agent="Mozilla/5.0 (Windows NT 6.1; Win64; x64) AppleWebKit/537.36 (KHTML, like Gecko) Chrome/109.0.0.0 Safari/537.36" etag="phgJaFx0QnxWzc5tPkIm" version="22.1.4" type="device">
  <diagram name="Страница — 1" id="cHZNkrMKi43Qzql3qhIE">
    <mxGraphModel dx="830" dy="461" grid="1" gridSize="10" guides="1" tooltips="1" connect="1" arrows="1" fold="1" page="1" pageScale="1" pageWidth="827" pageHeight="1169" math="0" shadow="0">
      <root>
        <mxCell id="0" />
        <mxCell id="1" parent="0" />
        <mxCell id="61AYmdqy4JAuTxoMonif-6" style="edgeStyle=orthogonalEdgeStyle;rounded=0;orthogonalLoop=1;jettySize=auto;html=1;exitX=0.5;exitY=1;exitDx=0;exitDy=0;entryX=0.5;entryY=0;entryDx=0;entryDy=0;" edge="1" parent="1" source="61AYmdqy4JAuTxoMonif-1" target="61AYmdqy4JAuTxoMonif-4">
          <mxGeometry relative="1" as="geometry" />
        </mxCell>
        <mxCell id="61AYmdqy4JAuTxoMonif-11" value="" style="edgeStyle=orthogonalEdgeStyle;rounded=0;orthogonalLoop=1;jettySize=auto;html=1;" edge="1" parent="1" source="61AYmdqy4JAuTxoMonif-1" target="61AYmdqy4JAuTxoMonif-10">
          <mxGeometry relative="1" as="geometry" />
        </mxCell>
        <mxCell id="61AYmdqy4JAuTxoMonif-1" value="&lt;font style=&quot;font-size: 16px;&quot; face=&quot;Times New Roman&quot;&gt;Ввод up()&lt;/font&gt;" style="rounded=1;whiteSpace=wrap;html=1;" vertex="1" parent="1">
          <mxGeometry x="360" y="230" width="80" height="30" as="geometry" />
        </mxCell>
        <mxCell id="61AYmdqy4JAuTxoMonif-5" style="edgeStyle=orthogonalEdgeStyle;rounded=0;orthogonalLoop=1;jettySize=auto;html=1;exitX=0.5;exitY=1;exitDx=0;exitDy=0;entryX=0.5;entryY=0;entryDx=0;entryDy=0;" edge="1" parent="1" source="61AYmdqy4JAuTxoMonif-2" target="61AYmdqy4JAuTxoMonif-1">
          <mxGeometry relative="1" as="geometry" />
        </mxCell>
        <mxCell id="61AYmdqy4JAuTxoMonif-2" value="" style="ellipse;whiteSpace=wrap;html=1;aspect=fixed;fillColor=#000000;" vertex="1" parent="1">
          <mxGeometry x="390" y="190" width="20" height="20" as="geometry" />
        </mxCell>
        <mxCell id="61AYmdqy4JAuTxoMonif-3" value="" style="ellipse;shape=doubleEllipse;whiteSpace=wrap;html=1;aspect=fixed;fillColor=#000000;strokeColor=#ffffff;direction=south;" vertex="1" parent="1">
          <mxGeometry x="387.5" y="950" width="25" height="25" as="geometry" />
        </mxCell>
        <mxCell id="61AYmdqy4JAuTxoMonif-9" style="edgeStyle=orthogonalEdgeStyle;rounded=0;orthogonalLoop=1;jettySize=auto;html=1;exitX=0.5;exitY=1;exitDx=0;exitDy=0;entryX=0.5;entryY=0;entryDx=0;entryDy=0;" edge="1" parent="1" source="61AYmdqy4JAuTxoMonif-4">
          <mxGeometry relative="1" as="geometry">
            <mxPoint x="400" y="330" as="targetPoint" />
          </mxGeometry>
        </mxCell>
        <mxCell id="61AYmdqy4JAuTxoMonif-4" value="&lt;font style=&quot;font-size: 16px;&quot; face=&quot;Times New Roman&quot;&gt;Ввод a, b, c&lt;/font&gt;" style="rounded=1;whiteSpace=wrap;html=1;arcSize=21;" vertex="1" parent="1">
          <mxGeometry x="360" y="280" width="80" height="30" as="geometry" />
        </mxCell>
        <mxCell id="61AYmdqy4JAuTxoMonif-13" style="edgeStyle=orthogonalEdgeStyle;rounded=0;orthogonalLoop=1;jettySize=auto;html=1;exitX=0.5;exitY=1;exitDx=0;exitDy=0;entryX=0.5;entryY=0;entryDx=0;entryDy=0;" edge="1" parent="1" source="61AYmdqy4JAuTxoMonif-10" target="61AYmdqy4JAuTxoMonif-12">
          <mxGeometry relative="1" as="geometry" />
        </mxCell>
        <mxCell id="61AYmdqy4JAuTxoMonif-10" value="&lt;font style=&quot;font-size: 16px;&quot; face=&quot;Times New Roman&quot;&gt;up := a, b, c&lt;/font&gt;" style="rounded=1;whiteSpace=wrap;html=1;arcSize=21;" vertex="1" parent="1">
          <mxGeometry x="351.25" y="330" width="97.5" height="30" as="geometry" />
        </mxCell>
        <mxCell id="61AYmdqy4JAuTxoMonif-17" style="edgeStyle=orthogonalEdgeStyle;rounded=0;orthogonalLoop=1;jettySize=auto;html=1;exitX=0.5;exitY=1;exitDx=0;exitDy=0;entryX=0.5;entryY=0;entryDx=0;entryDy=0;" edge="1" parent="1" source="61AYmdqy4JAuTxoMonif-12" target="61AYmdqy4JAuTxoMonif-14">
          <mxGeometry relative="1" as="geometry" />
        </mxCell>
        <mxCell id="61AYmdqy4JAuTxoMonif-12" value="&lt;font style=&quot;font-size: 16px;&quot; face=&quot;Times New Roman&quot;&gt;i := 0&lt;/font&gt;" style="rounded=1;whiteSpace=wrap;html=1;arcSize=21;" vertex="1" parent="1">
          <mxGeometry x="360" y="380" width="80" height="30" as="geometry" />
        </mxCell>
        <mxCell id="61AYmdqy4JAuTxoMonif-20" style="edgeStyle=orthogonalEdgeStyle;rounded=0;orthogonalLoop=1;jettySize=auto;html=1;exitX=0.5;exitY=1;exitDx=0;exitDy=0;entryX=0.5;entryY=0;entryDx=0;entryDy=0;" edge="1" parent="1" source="61AYmdqy4JAuTxoMonif-14" target="61AYmdqy4JAuTxoMonif-19">
          <mxGeometry relative="1" as="geometry" />
        </mxCell>
        <mxCell id="61AYmdqy4JAuTxoMonif-14" value="" style="rhombus;whiteSpace=wrap;html=1;" vertex="1" parent="1">
          <mxGeometry x="390" y="430" width="20" height="20" as="geometry" />
        </mxCell>
        <mxCell id="61AYmdqy4JAuTxoMonif-18" value="&lt;font style=&quot;font-size: 14px;&quot; face=&quot;Times New Roman&quot;&gt;[i &amp;lt; 2]&lt;/font&gt;" style="text;html=1;strokeColor=none;fillColor=none;align=center;verticalAlign=middle;whiteSpace=wrap;rounded=0;" vertex="1" parent="1">
          <mxGeometry x="394" y="445" width="60" height="30" as="geometry" />
        </mxCell>
        <mxCell id="61AYmdqy4JAuTxoMonif-22" style="edgeStyle=orthogonalEdgeStyle;rounded=0;orthogonalLoop=1;jettySize=auto;html=1;exitX=0.5;exitY=1;exitDx=0;exitDy=0;entryX=0.5;entryY=0;entryDx=0;entryDy=0;" edge="1" parent="1" source="61AYmdqy4JAuTxoMonif-19" target="61AYmdqy4JAuTxoMonif-21">
          <mxGeometry relative="1" as="geometry" />
        </mxCell>
        <mxCell id="61AYmdqy4JAuTxoMonif-19" value="&lt;font style=&quot;font-size: 16px;&quot; face=&quot;Times New Roman&quot;&gt;j := 0&lt;/font&gt;" style="rounded=1;whiteSpace=wrap;html=1;arcSize=21;" vertex="1" parent="1">
          <mxGeometry x="360" y="480" width="80" height="30" as="geometry" />
        </mxCell>
        <mxCell id="61AYmdqy4JAuTxoMonif-24" style="edgeStyle=orthogonalEdgeStyle;rounded=0;orthogonalLoop=1;jettySize=auto;html=1;exitX=0.5;exitY=1;exitDx=0;exitDy=0;entryX=0.5;entryY=0;entryDx=0;entryDy=0;" edge="1" parent="1" source="61AYmdqy4JAuTxoMonif-21" target="61AYmdqy4JAuTxoMonif-23">
          <mxGeometry relative="1" as="geometry" />
        </mxCell>
        <mxCell id="61AYmdqy4JAuTxoMonif-21" value="" style="rhombus;whiteSpace=wrap;html=1;" vertex="1" parent="1">
          <mxGeometry x="390" y="530" width="20" height="20" as="geometry" />
        </mxCell>
        <mxCell id="61AYmdqy4JAuTxoMonif-27" style="edgeStyle=orthogonalEdgeStyle;rounded=0;orthogonalLoop=1;jettySize=auto;html=1;exitX=0;exitY=0.5;exitDx=0;exitDy=0;entryX=0.5;entryY=0;entryDx=0;entryDy=0;" edge="1" parent="1" source="61AYmdqy4JAuTxoMonif-23" target="61AYmdqy4JAuTxoMonif-26">
          <mxGeometry relative="1" as="geometry" />
        </mxCell>
        <mxCell id="61AYmdqy4JAuTxoMonif-32" style="edgeStyle=orthogonalEdgeStyle;rounded=0;orthogonalLoop=1;jettySize=auto;html=1;exitX=0.5;exitY=1;exitDx=0;exitDy=0;entryX=0.5;entryY=0;entryDx=0;entryDy=0;" edge="1" parent="1" source="61AYmdqy4JAuTxoMonif-23" target="61AYmdqy4JAuTxoMonif-28">
          <mxGeometry relative="1" as="geometry" />
        </mxCell>
        <mxCell id="61AYmdqy4JAuTxoMonif-23" value="" style="rhombus;whiteSpace=wrap;html=1;" vertex="1" parent="1">
          <mxGeometry x="390" y="585" width="20" height="20" as="geometry" />
        </mxCell>
        <mxCell id="61AYmdqy4JAuTxoMonif-25" value="&lt;font style=&quot;font-size: 14px;&quot; face=&quot;Times New Roman&quot;&gt;[j &amp;lt; 2 - i]&lt;/font&gt;" style="text;html=1;strokeColor=none;fillColor=none;align=center;verticalAlign=middle;whiteSpace=wrap;rounded=0;" vertex="1" parent="1">
          <mxGeometry x="401" y="547" width="60" height="30" as="geometry" />
        </mxCell>
        <mxCell id="61AYmdqy4JAuTxoMonif-30" style="edgeStyle=orthogonalEdgeStyle;rounded=0;orthogonalLoop=1;jettySize=auto;html=1;exitX=0.5;exitY=1;exitDx=0;exitDy=0;entryX=0;entryY=0.5;entryDx=0;entryDy=0;" edge="1" parent="1" source="61AYmdqy4JAuTxoMonif-26" target="61AYmdqy4JAuTxoMonif-28">
          <mxGeometry relative="1" as="geometry" />
        </mxCell>
        <mxCell id="61AYmdqy4JAuTxoMonif-26" value="&lt;font style=&quot;font-size: 16px;&quot; face=&quot;Times New Roman&quot;&gt;up(j), up(j+1) := up(j+1), up(j)&lt;/font&gt;" style="rounded=1;whiteSpace=wrap;html=1;arcSize=21;" vertex="1" parent="1">
          <mxGeometry x="130" y="640" width="210" height="40" as="geometry" />
        </mxCell>
        <mxCell id="61AYmdqy4JAuTxoMonif-35" style="edgeStyle=orthogonalEdgeStyle;rounded=0;orthogonalLoop=1;jettySize=auto;html=1;exitX=0.5;exitY=1;exitDx=0;exitDy=0;entryX=0.5;entryY=0;entryDx=0;entryDy=0;" edge="1" parent="1" source="61AYmdqy4JAuTxoMonif-28" target="61AYmdqy4JAuTxoMonif-29">
          <mxGeometry relative="1" as="geometry" />
        </mxCell>
        <mxCell id="61AYmdqy4JAuTxoMonif-37" style="edgeStyle=orthogonalEdgeStyle;rounded=0;orthogonalLoop=1;jettySize=auto;html=1;exitX=1;exitY=0.5;exitDx=0;exitDy=0;entryX=1;entryY=0.5;entryDx=0;entryDy=0;" edge="1" parent="1" source="61AYmdqy4JAuTxoMonif-28" target="61AYmdqy4JAuTxoMonif-21">
          <mxGeometry relative="1" as="geometry">
            <Array as="points">
              <mxPoint x="480" y="715" />
              <mxPoint x="480" y="540" />
            </Array>
          </mxGeometry>
        </mxCell>
        <mxCell id="61AYmdqy4JAuTxoMonif-28" value="&lt;font style=&quot;font-size: 16px;&quot; face=&quot;Times New Roman&quot;&gt;j := j + 1&lt;/font&gt;" style="rounded=1;whiteSpace=wrap;html=1;arcSize=21;" vertex="1" parent="1">
          <mxGeometry x="360" y="700" width="80" height="30" as="geometry" />
        </mxCell>
        <mxCell id="61AYmdqy4JAuTxoMonif-36" style="edgeStyle=orthogonalEdgeStyle;rounded=0;orthogonalLoop=1;jettySize=auto;html=1;exitX=1;exitY=0.5;exitDx=0;exitDy=0;entryX=1;entryY=0.5;entryDx=0;entryDy=0;" edge="1" parent="1" source="61AYmdqy4JAuTxoMonif-29" target="61AYmdqy4JAuTxoMonif-14">
          <mxGeometry relative="1" as="geometry">
            <Array as="points">
              <mxPoint x="510" y="765" />
              <mxPoint x="510" y="440" />
            </Array>
          </mxGeometry>
        </mxCell>
        <mxCell id="61AYmdqy4JAuTxoMonif-41" style="edgeStyle=orthogonalEdgeStyle;rounded=0;orthogonalLoop=1;jettySize=auto;html=1;exitX=0.5;exitY=1;exitDx=0;exitDy=0;entryX=0.5;entryY=0;entryDx=0;entryDy=0;" edge="1" parent="1" source="61AYmdqy4JAuTxoMonif-29" target="61AYmdqy4JAuTxoMonif-38">
          <mxGeometry relative="1" as="geometry" />
        </mxCell>
        <mxCell id="61AYmdqy4JAuTxoMonif-29" value="&lt;font style=&quot;font-size: 16px;&quot; face=&quot;Times New Roman&quot;&gt;i := i + 1&lt;/font&gt;" style="rounded=1;whiteSpace=wrap;html=1;arcSize=21;" vertex="1" parent="1">
          <mxGeometry x="360" y="750" width="80" height="30" as="geometry" />
        </mxCell>
        <mxCell id="61AYmdqy4JAuTxoMonif-33" value="&lt;font style=&quot;font-size: 14px;&quot; face=&quot;Times New Roman&quot;&gt;[up(j) &amp;gt; up(j+1)]&lt;/font&gt;" style="text;html=1;strokeColor=none;fillColor=none;align=center;verticalAlign=middle;whiteSpace=wrap;rounded=0;" vertex="1" parent="1">
          <mxGeometry x="264" y="570" width="100" height="30" as="geometry" />
        </mxCell>
        <mxCell id="61AYmdqy4JAuTxoMonif-34" value="&lt;font style=&quot;font-size: 14px;&quot; face=&quot;Times New Roman&quot;&gt;[else]&lt;/font&gt;" style="text;html=1;strokeColor=none;fillColor=none;align=center;verticalAlign=middle;whiteSpace=wrap;rounded=0;" vertex="1" parent="1">
          <mxGeometry x="390" y="630" width="60" height="30" as="geometry" />
        </mxCell>
        <mxCell id="61AYmdqy4JAuTxoMonif-42" style="edgeStyle=orthogonalEdgeStyle;rounded=0;orthogonalLoop=1;jettySize=auto;html=1;exitX=0.5;exitY=1;exitDx=0;exitDy=0;entryX=0.5;entryY=0;entryDx=0;entryDy=0;" edge="1" parent="1" source="61AYmdqy4JAuTxoMonif-38" target="61AYmdqy4JAuTxoMonif-39">
          <mxGeometry relative="1" as="geometry" />
        </mxCell>
        <mxCell id="61AYmdqy4JAuTxoMonif-38" value="&lt;font style=&quot;font-size: 14px;&quot; face=&quot;Times New Roman&quot;&gt;&lt;font style=&quot;font-size: 14px;&quot;&gt;Вывод up&lt;/font&gt;&lt;/font&gt;" style="rounded=1;whiteSpace=wrap;html=1;" vertex="1" parent="1">
          <mxGeometry x="360" y="800" width="80" height="30" as="geometry" />
        </mxCell>
        <mxCell id="61AYmdqy4JAuTxoMonif-43" style="edgeStyle=orthogonalEdgeStyle;rounded=0;orthogonalLoop=1;jettySize=auto;html=1;exitX=0.5;exitY=1;exitDx=0;exitDy=0;entryX=0.5;entryY=0;entryDx=0;entryDy=0;" edge="1" parent="1" source="61AYmdqy4JAuTxoMonif-39" target="61AYmdqy4JAuTxoMonif-40">
          <mxGeometry relative="1" as="geometry" />
        </mxCell>
        <mxCell id="61AYmdqy4JAuTxoMonif-39" value="&lt;font style=&quot;font-size: 14px;&quot; face=&quot;Times New Roman&quot;&gt;&lt;font style=&quot;font-size: 14px;&quot;&gt;up.reverse()&lt;/font&gt;&lt;/font&gt;" style="rounded=1;whiteSpace=wrap;html=1;" vertex="1" parent="1">
          <mxGeometry x="360" y="850" width="80" height="30" as="geometry" />
        </mxCell>
        <mxCell id="61AYmdqy4JAuTxoMonif-44" style="edgeStyle=orthogonalEdgeStyle;rounded=0;orthogonalLoop=1;jettySize=auto;html=1;exitX=0.5;exitY=1;exitDx=0;exitDy=0;entryX=0;entryY=0.5;entryDx=0;entryDy=0;" edge="1" parent="1" source="61AYmdqy4JAuTxoMonif-40" target="61AYmdqy4JAuTxoMonif-3">
          <mxGeometry relative="1" as="geometry" />
        </mxCell>
        <mxCell id="61AYmdqy4JAuTxoMonif-40" value="&lt;font style=&quot;font-size: 14px;&quot; face=&quot;Times New Roman&quot;&gt;&lt;font style=&quot;font-size: 14px;&quot;&gt;Вывод up&lt;/font&gt;&lt;/font&gt;" style="rounded=1;whiteSpace=wrap;html=1;" vertex="1" parent="1">
          <mxGeometry x="360" y="900" width="80" height="30" as="geometry" />
        </mxCell>
      </root>
    </mxGraphModel>
  </diagram>
</mxfile>
